  0
SECTION
  2
HEADER
  9
$ACADVER
  1
AC1009
  9
$EXTMAX
 10
150.0
 20
41.0
 30
0.0
  9
$EXTMIN
 10
-41.0
 20
-41.0
 30
0.0
  9
$INSUNITS
 70
     4
  9
$LUNITS
 70
     2
  9
$LUPREC
 70
     4
  9
$MEASUREMENT
 70
     1
  0
ENDSEC
  0
SECTION
  2
TABLES
  0
TABLE
  2
LAYER
 70
     1
  0
LAYER
  2
0
 70
     0
 62
     7
  6
Continuous
  0
LAYER
  2
Default
 70
     0
 62
    70
  6
Continuous
  0
LAYER
  2
Layer1
 70
     0
 62
    70
  6
Continuous
  0
LAYER
  2
Layer3
 70
     0
 62
    70
  6
Continuous
  0
ENDTAB
  0
TABLE
  2
APPID
 70
     1
  0
APPID
  2
ACAD
 70
     0
  0
ENDTAB
  0
ENDSEC
  0
SECTION
  2
ENTITIES
  0
CIRCLE
  8
Default
 10
0.0
 20
0.0
 30
0.0
 40
3.175
  0
CIRCLE
  8
Default
 10
0.0
 20
0.0
 30
0.0
 40
10.0
  0
CIRCLE
  8
Default
 10
0.0
 20
0.0
 30
0.0
 40
15.0
  0
CIRCLE
  8
Default
 10
0.0
 20
15.0
 30
0.0
 40
1.5
  0
CIRCLE
  8
Default
 10
-12.9903810567666
 20
-7.5
 30
0.0
 40
1.5
  0
CIRCLE
  8
Default
 10
12.9903810567666
 20
-7.5
 30
0.0
 40
1.5
  0
CIRCLE
  8
Default
 10
0.0
 20
0.0
 30
0.0
 40
18.25
  0
CIRCLE
  8
Default
 10
0.0
 20
0.0
 30
0.0
 40
41.0
  0
CIRCLE
  8
Default
 10
0.0
 20
0.0
 30
0.0
 40
30.0
  0
POLYLINE
  8
Layer1
 66
     1
 10
0.0
 20
0.0
 30
0.0
 70
     1
  0
VERTEX
  8
Layer1
 10
23.6940945317807
 20
-28.4181259818278
 42
0.0015884293456
  0
VERTEX
  8
Layer1
 10
23.8741756464651
 20
-28.2670079280021
 42
0.1746896237776
  0
VERTEX
  8
Layer1
 10
36.4175487224364
 20
-6.5392771044641
 42
0.0293500520187
  0
VERTEX
  8
Layer1
 10
36.4583620470519
 20
-6.3077600498182
 42
0.2992319174308
  0
VERTEX
  8
Layer1
 10
35.4697042048482
 20
-4.3405170177526
 42
0.4988270451291
  0
VERTEX
  8
Layer1
 10
32.5226074750192
 20
-5.5928528521522
 42
0.034546856739
  0
VERTEX
  8
Layer1
 10
32.474583558715
 20
-5.8652726013408
 42
-0.1741670056745
  0
VERTEX
  8
Layer1
 10
21.3187462158148
 20
-25.1895029682144
 42
0.0345468567391
  0
VERTEX
  8
Layer1
 10
21.1068497221806
 20
-25.3673194249074
 42
0.2036365378829
  0
VERTEX
  8
Layer1
 10
20.4938739975211
 20
-26.8099803338066
 42
0.5773502691896
  0
VERTEX
  8
Layer1
 10
23.500122415987
 20
-28.5456386674587
 42
0.0289803480294
  0
SEQEND
  0
POLYLINE
  8
Layer1
 66
     1
 10
0.0
 20
0.0
 30
0.0
 70
     1
  0
VERTEX
  8
Layer1
 10
-36.4578662940999
 20
-6.3106247932782
 42
0.0015884293456
  0
VERTEX
  8
Layer1
 10
-36.4170347778585
 20
-6.5421386402494
 42
0.1746896237776
  0
VERTEX
  8
Layer1
 10
-23.87195445607
 20
-28.2688837849555
 42
0.0015884293456
  0
VERTEX
  8
Layer1
 10
-23.6918614676452
 20
-28.4199876882083
 42
0.2992319174308
  0
VERTEX
  8
Layer1
 10
-21.4938501053565
 20
-28.5474063972419
 42
0.4988270451291
  0
VERTEX
  8
Layer1
 10
-21.1048563871015
 20
-25.3689778446003
 42
0.0345468567391
  0
VERTEX
  8
Layer1
 10
-21.3167668522396
 20
-25.1911780384971
 42
-0.1741670056745
  0
VERTEX
  8
Layer1
 10
-32.4741225870846
 20
-5.8678243156218
 42
-0.0020956178913
  0
VERTEX
  8
Layer1
 10
-32.5221679089746
 20
-5.5954083408152
 42
0.203636537883
  0
VERTEX
  8
Layer1
 10
-33.4650610427982
 20
-4.3432253369073
 42
0.5773502691896
  0
VERTEX
  8
Layer1
 10
-36.4713094612641
 20
-6.0788836705595
 42
0.0289803480294
  0
SEQEND
  0
POLYLINE
  8
Layer1
 66
     1
 10
0.0
 20
0.0
 30
0.0
 70
     1
  0
VERTEX
  8
Layer1
 10
12.5428591313933
 20
34.8091465682516
 42
0.1746896237776
  0
VERTEX
  8
Layer1
 10
-12.5455942663663
 20
34.8081608894196
 42
0.0015884293456
  0
VERTEX
  8
Layer1
 10
-12.766500579407
 20
34.7277477380264
 42
0.2992319174308
  0
VERTEX
  8
Layer1
 10
-13.9758540994916
 20
32.8879234149945
 42
0.4988270451291
  0
VERTEX
  8
Layer1
 10
-11.4177510879176
 20
30.9618306967524
 42
0.0345468567391
  0
VERTEX
  8
Layer1
 10
-11.1578167064754
 20
31.0564506398381
 42
-0.1741670056745
  0
VERTEX
  8
Layer1
 10
11.1553763712698
 20
31.0573272838362
 42
0.0345468567391
  0
VERTEX
  8
Layer1
 10
11.415318186794
 20
30.9627277657226
 42
0.2036365378829
  0
VERTEX
  8
Layer1
 10
12.9711870452771
 20
31.1532056707139
 42
0.5773502691896
  0
VERTEX
  8
Layer1
 10
12.9711870452771
 20
34.6245223380182
 42
0.0289803480293
  0
VERTEX
  8
Layer1
 10
12.7637717623192
 20
34.728750775106
 42
0.0293500520187
  0
SEQEND
  0
POLYLINE
  8
Layer3
 66
     1
 10
0.0
 20
0.0
 30
0.0
 70
     1
  0
VERTEX
  8
Layer3
 10
4.5440653584921
 20
-27.4107911235293
 42
0.0
  0
VERTEX
  8
Layer3
 10
140.905195019906
 20
-9.9589468306612
 42
0.3879070948296
  0
VERTEX
  8
Layer3
 10
150.0
 20
0.0
 42
0.3938539770541
  0
VERTEX
  8
Layer3
 10
140.699516375884
 20
9.9755038388981
 42
0.0
  0
VERTEX
  8
Layer3
 10
4.3719199139511
 20
27.4387739570484
 42
0.1720697308047
  0
VERTEX
  8
Layer3
 10
-13.8924439894498
 20
24.0624188310319
 42
0.5773502691896
  0
VERTEX
  8
Layer3
 10
-13.8924439894498
 20
-24.0624188310319
 42
0.1539799927791
  0
VERTEX
  8
Layer3
 10
2.4286718297412
 20
-27.6785395775034
 42
0.0
  0
VERTEX
  8
Layer3
 10
2.4286539819755
 20
-27.681526853352
 42
0.0
  0
VERTEX
  8
Layer3
 10
2.5055304568952
 20
-27.6716880065089
 42
0.0184980541179
  0
SEQEND
  0
CIRCLE
  8
Layer3
 10
140.0
 20
0.0
 30
0.0
 40
3.17
  0
CIRCLE
  8
Layer3
 10
0.0
 20
0.0
 30
0.0
 40
3.17
  0
ENDSEC
  0
EOF
